<?xml version="1.0" encoding="UTF-8" standalone="no"?>
<svg
   xmlns:dc="http://purl.org/dc/elements/1.1/"
   xmlns:cc="http://creativecommons.org/ns#"
   xmlns:rdf="http://www.w3.org/1999/02/22-rdf-syntax-ns#"
   xmlns:svg="http://www.w3.org/2000/svg"
   xmlns="http://www.w3.org/2000/svg"
   id="svg8"
   version="1.1"
   viewBox="0 0 227.47867 176.8945"
   height="176.8945mm"
   width="227.47867mm">
  <defs
     id="defs2" />
  <metadata
     id="metadata5">
    <rdf:RDF>
      <cc:Work
         rdf:about="">
        <dc:format>image/svg+xml</dc:format>
        <dc:type
           rdf:resource="http://purl.org/dc/dcmitype/StillImage" />
        <dc:title></dc:title>
      </cc:Work>
    </rdf:RDF>
  </metadata>
  <g
     transform="translate(-31.617708,-52.441961)"
     style="display:inline"
     id="layer2">
    <path
       id="path1354"
       d="m 51.215774,170.55952 44.790176,-84.666664 3.779764,0.188986 11.906246,34.584818 30.61607,-68.224699 h 3.2128 l 30.80506,68.791669 11.90625,-35.151788 h 3.77976 l 43.84524,84.666668 h -5.29167 L 190.5,92.507439 178.97172,126.71428 198.4375,170.55952 h -4.53572 L 144.00893,59.623509 93.927082,170.55952 H 89.202381 L 108.66815,126.71428 97.328867,92.507439 56.318451,170.74851 Z"
       style="fill:#1e1e1e;fill-opacity:1;stroke:none;stroke-width:0.26458332px;stroke-linecap:butt;stroke-linejoin:miter;stroke-opacity:1" />
    <path
       id="path1356"
       d="m 31.832682,219.30664 18.086752,-40.51433 h 4.754232 l 17.983398,40.51433 -10.231935,0.10335 -10.025226,-22.84098 -10.128581,22.84098 z"
       style="fill:#1e1e1e;fill-opacity:1;stroke:none;stroke-width:0.26458332px;stroke-linecap:butt;stroke-linejoin:miter;stroke-opacity:1" />
    <path
       id="path1366"
       transform="scale(0.26458333)"
       d="m 316.79688,676.92188 -0.39063,151.95312 35.15625,0.39062 V 771.0625 c 0,0 31.25003,0.78124 36.32812,0.39062 5.07814,-0.39065 46.87501,-9.76563 42.96876,-49.60937 -3.90626,-39.84374 -43.75,-44.53125 -43.75,-44.53125 z m 59.76562,30.76171 c 0,0 18.35938,0.97656 18.35938,16.40625 0,15.4297 -15.13673,16.89452 -19.4336,17.08985 -4.29687,0.1954 -22.85156,0 -22.85156,0 v -33.39844 z"
       style="fill:#1e1e1e;fill-opacity:1;stroke:none;stroke-width:0.99999994px;stroke-linecap:butt;stroke-linejoin:miter;stroke-opacity:1" />
    <path
       style="fill:#1e1e1e;fill-opacity:1;stroke:none;stroke-width:0.26458332px;stroke-linecap:butt;stroke-linejoin:miter;stroke-opacity:1"
       d="m 125.25441,219.46167 18.08675,-40.51433 h 4.75424 l 17.98339,40.51433 -10.23193,0.10335 -10.02523,-22.84098 -10.12858,22.84098 z"
       id="path1372" />
    <path
       id="path1374"
       d="m 218.27199,219.06479 18.08675,-40.51433 h 4.75424 l 17.98339,40.51433 -10.23193,0.10335 -10.02523,-22.84098 -10.12858,22.84098 z"
       style="fill:#1e1e1e;fill-opacity:1;stroke:none;stroke-width:0.26458332px;stroke-linecap:butt;stroke-linejoin:miter;stroke-opacity:1" />
    <path
       id="path1378"
       d="m 187.34591,219.19863 v -32.17925 h -11.15516 l 0.0117,-8.03312 31.5829,0.0117 -0.0117,8.02143 -11.00315,0.0351 v 32.13247 z"
       style="fill:#1e1e1e;fill-opacity:1;stroke:none;stroke-width:0.26458332px;stroke-linecap:butt;stroke-linejoin:miter;stroke-opacity:1" />
    <path
       id="path1380"
       d="m 31.617708,229.29466 1.35599,-2.00091 224.717552,0.0315 1.37978,2.01121 z"
       style="fill:#1e1e1e;fill-opacity:1;stroke:none;stroke-width:0.26458332px;stroke-linecap:butt;stroke-linejoin:miter;stroke-opacity:1" />
  </g>
</svg>
